<?xml version="1.0" encoding="UTF-8"?>
<svg version="1.1" xmlns="http://www.w3.org/2000/svg" width="291" height="274">
<path d="M0 0 C96.03 0 192.06 0 291 0 C291 90.42 291 180.84 291 274 C194.97 274 98.94 274 0 274 C0 183.58 0 93.16 0 0 Z " fill="#000000" transform="translate(0,0)"/>
<path d="M0 0 C0 49.5 0 99 0 150 C-32.01 150 -64.02 150 -97 150 C-97.16065467 119.12306426 -97.16065467 119.12306426 -97.20101547 103.84741306 C-97.22316224 95.59308711 -97.25125822 87.33892323 -97.30175781 79.0847168 C-97.34172779 72.54844861 -97.36745693 66.01230286 -97.37635398 59.47591585 C-97.38155167 56.0174766 -97.39369766 52.55938748 -97.42292023 49.10106087 C-97.45533951 45.23275501 -97.45595291 41.36478624 -97.45410156 37.49633789 C-97.46848267 36.35985306 -97.48286377 35.22336823 -97.49768066 34.05244446 C-97.44006944 22.90308981 -93.78633634 15.80411337 -86 8 C-65.93686028 -11.5208927 -12.29889123 0 0 0 Z " fill="#FEFEFE" transform="translate(137,35)"/>
<path d="M0 0 C16.9846875 -0.12375 16.9846875 -0.12375 34.3125 -0.25 C37.86684814 -0.28641602 41.42119629 -0.32283203 45.08325195 -0.36035156 C49.47692871 -0.37841797 49.47692871 -0.37841797 51.54411316 -0.3817749 C52.96534763 -0.3878537 54.38656355 -0.4017878 55.80766296 -0.42230225 C67.00029259 -0.57557419 77.64478769 0.09576494 86.3125 8 C87.07175781 8.66 87.83101563 9.32 88.61328125 10 C96.54262323 19.96683247 97.85218451 29.23290855 97.5859375 41.484375 C97.5770888 42.86212703 97.57098441 44.23989943 97.56762695 45.61767578 C97.53648163 50.66209636 97.45271513 55.70608194 97.375 60.75 C97.25125 72.0525 97.1275 83.355 97 95 C64.99 95 32.98 95 0 95 C0 63.65 0 32.3 0 0 Z " fill="#FEFEFE" transform="translate(148,35)"/>
<path d="M0 0 C32.01 0 64.02 0 97 0 C97 14.52 97 29.04 97 44 C79.3922327 44.16043524 79.3922327 44.16043524 71.84570312 44.1953125 C66.71052369 44.21915847 61.57563146 44.24726769 56.44067383 44.30175781 C52.29741724 44.3454457 48.15446896 44.36918515 44.01099968 44.37950897 C42.43584279 44.38685943 40.86070142 44.40121267 39.28567696 44.42292023 C30.82112972 44.53486683 23.4561997 44.5586429 16 40 C15.0405825 39.46345795 15.0405825 39.46345795 14.06178284 38.91607666 C6.07611439 34.28324036 2.41496481 25.45237682 0 17 C0 11.39 0 5.78 0 0 Z " fill="#FEFEFE" transform="translate(40,196)"/>
<path d="M0 0 C15.51 0 31.02 0 47 0 C47 14.52 47 29.04 47 44 C31.49 44 15.98 44 0 44 C0 29.48 0 14.96 0 0 Z " fill="#FEFEFE" transform="translate(148,196)"/>
<path d="M0 0 C14.19 0 28.38 0 43 0 C43 13.2 43 26.4 43 40 C28.81 40 14.62 40 0 40 C0 26.8 0 13.6 0 0 Z " fill="#BD0001" transform="translate(150,143)"/>
<path d="M0 0 C12.87 0 25.74 0 39 0 C39 14.52 39 29.04 39 44 C26.13 44 13.26 44 0 44 C0 29.48 0 14.96 0 0 Z " fill="#FEFEFE" transform="translate(206,141)"/>
<path d="M0 0 C12.87 0 25.74 0 39 0 C39 24.75703642 39 24.75703642 28.515625 35.796875 C19.61518882 43.59166693 11.81640898 44 0 44 C0 29.48 0 14.96 0 0 Z " fill="#FDFDFD" transform="translate(206,196)"/>
<path d="M0 0 C14.19 0 28.38 0 43 0 C43 13.2 43 26.4 43 40 C28.81 40 14.62 40 0 40 C0 26.8 0 13.6 0 0 Z M6 2 C5.95875 6.82625 5.9175 11.6525 5.875 16.625 C5.85679199 18.13658691 5.83858398 19.64817383 5.81982422 21.20556641 C5.8148291 22.40874512 5.80983398 23.61192383 5.8046875 24.8515625 C5.79421387 26.07697754 5.78374023 27.30239258 5.77294922 28.56494141 C5.88808325 32.50748181 5.88808325 32.50748181 8 38 C18.89 38 29.78 38 41 38 C41 26.12 41 14.24 41 2 C29.45 2 17.9 2 6 2 Z " fill="#A7090C" transform="translate(150,143)"/>
<path d="M0 0 C0.66 0.33 1.32 0.66 2 1 C2.495 20.8 2.495 20.8 3 41 C0.21938025 41.92687325 -1.42051859 42.12193396 -4.2878418 42.11352539 C-5.14850754 42.11344986 -6.00917328 42.11337433 -6.8959198 42.11329651 C-7.82100845 42.10813522 -8.74609711 42.10297394 -9.69921875 42.09765625 C-10.64940384 42.0962413 -11.59958893 42.09482635 -12.5785675 42.09336853 C-15.61491029 42.08776875 -18.65117948 42.07521632 -21.6875 42.0625 C-23.74544164 42.05748497 -25.80338444 42.05292207 -27.86132812 42.04882812 C-32.90758046 42.0377994 -37.95377775 42.02053493 -43 42 C-43 41.34 -43 40.68 -43 40 C-28.81 40 -14.62 40 0 40 C0 26.8 0 13.6 0 0 Z " fill="#1E0000" transform="translate(193,143)"/>
<path d="M0 0 C0.9265741 0.02644089 1.85314819 0.05288177 2.80780029 0.0801239 C5.76315397 0.16779642 8.71726652 0.27697752 11.671875 0.38671875 C13.67703906 0.44998692 15.68224789 0.51185266 17.6875 0.57226562 C22.59962579 0.72332301 27.51074825 0.89367192 32.421875 1.07421875 C32.916875 2.06421875 32.916875 2.06421875 33.421875 3.07421875 C19.231875 3.07421875 5.041875 3.07421875 -9.578125 3.07421875 C-9.578125 16.27421875 -9.578125 29.47421875 -9.578125 43.07421875 C-9.908125 43.07421875 -10.238125 43.07421875 -10.578125 43.07421875 C-10.578125 30.20421875 -10.578125 17.33421875 -10.578125 4.07421875 C-11.568125 3.74421875 -12.558125 3.41421875 -13.578125 3.07421875 C-9.70720779 -1.05633315 -5.22888449 -0.21751348 0 0 Z " fill="#1D0000" transform="translate(159.578125,139.92578125)"/>
<path d="M0 0 C0.66 0.33 1.32 0.66 2 1 C0.49616703 5.21073233 -2.20664956 6.83237117 -6 9 C-6.99 9 -7.98 9 -9 9 C-6.03 6.03 -3.06 3.06 0 0 Z " fill="#E2E2E2" transform="translate(54,40)"/>
</svg>
