<?xml version="1.0" encoding="UTF-8"?>
<svg version="1.1" xmlns="http://www.w3.org/2000/svg" width="291" height="274">
<path d="M0 0 C0 49.5 0 99 0 150 C-32.01 150 -64.02 150 -97 150 C-97.12049101 119.12306426 -97.12049101 119.12306426 -97.1507616 103.84741306 C-97.1673716 95.59312817 -97.18844362 87.33893445 -97.22631836 79.0847168 C-97.25629584 72.54844914 -97.27559275 66.01225035 -97.28226548 59.47591585 C-97.28616368 56.01754409 -97.29527336 52.55936928 -97.31719017 49.10106087 C-97.34150445 45.23278338 -97.34196465 41.36469552 -97.34057617 37.49633789 C-97.351362 36.35985306 -97.36214783 35.22336823 -97.3732605 34.05244446 C-97.33161317 23.30590801 -95.14042502 16.16558352 -87.68359375 8.3046875 C-64.33260464 -11.7492915 -25.20816691 -0.36011667 0 0 Z " fill="#FEFEFE" transform="translate(137,35)"/>
<path d="M0 0 C12.00375 -0.103125 24.0075 -0.20625 36.375 -0.3125 C40.14728027 -0.35802002 43.91956055 -0.40354004 47.80615234 -0.45043945 C52.45825195 -0.47302246 52.45825195 -0.47302246 54.64492798 -0.47721863 C56.15289719 -0.48483251 57.6608384 -0.50228375 59.16860962 -0.52787781 C68.41461394 -0.67680585 76.11395449 -0.469362 84 5 C84.7461557 5.50855026 85.4923114 6.01710052 86.26107788 6.5410614 C86.83492218 7.02251114 87.40876648 7.50396088 88 8 C88 8.66 88 9.32 88 10 C88.66 10 89.32 10 90 10 C97.34227823 19.4739074 97.41474789 28.77562778 97.29296875 40.3125 C97.28855038 41.71418907 97.28549448 43.1158831 97.28381348 44.51757812 C97.26817187 49.67846157 97.22628809 54.83923861 97.1875 60 C97.125625 71.55 97.06375 83.1 97 95 C64.99 95 32.98 95 0 95 C0 63.65 0 32.3 0 0 Z " fill="#FDFDFD" transform="translate(148,35)"/>
<path d="M0 0 C32.01 0 64.02 0 97 0 C97 14.52 97 29.04 97 44 C79.18277559 44.16043524 79.18277559 44.16043524 71.5390625 44.1953125 C66.34032693 44.21914678 61.14187539 44.24722406 55.94335938 44.30175781 C51.74822773 44.34548621 47.55340104 44.36919356 43.35805893 44.37950897 C41.76419149 44.38685225 40.17033917 44.40119107 38.57660294 44.42292023 C28.2596774 44.55788117 19.57778624 44.10767204 10.9765625 37.7734375 C-1.16344986 25.39143154 0 19.199677 0 0 Z " fill="#FDFDFD" transform="translate(40,196)"/>
<path d="M0 0 C15.51 0 31.02 0 47 0 C47 14.52 47 29.04 47 44 C31.49 44 15.98 44 0 44 C0 29.48 0 14.96 0 0 Z " fill="#FEFEFE" transform="translate(148,196)"/>
<path d="M0 0 C0.85758911 -0.00315216 1.71517822 -0.00630432 2.59875488 -0.009552 C3.53102905 -0.00752777 4.46330322 -0.00550354 5.42382812 -0.00341797 C6.84979309 -0.00485306 6.84979309 -0.00485306 8.30456543 -0.00631714 C10.31876695 -0.00699904 12.33297065 -0.00514409 14.34716797 -0.00097656 C17.44178167 0.00437155 20.53625022 -0.00092124 23.63085938 -0.00732422 C25.58268261 -0.00666344 27.53450576 -0.00538228 29.48632812 -0.00341797 C30.88473938 -0.00645432 30.88473938 -0.00645432 32.31140137 -0.009552 C33.16899048 -0.00639984 34.02657959 -0.00324768 34.91015625 0 C35.66880981 0.00079559 36.42746338 0.00159119 37.20910645 0.00241089 C38.95507812 0.12939453 38.95507812 0.12939453 39.95507812 1.12939453 C40.05616226 3.90596584 40.09477403 6.65712519 40.08789062 9.43408203 C40.08884735 10.26900177 40.08980408 11.10392151 40.09078979 11.96414185 C40.09147175 13.73455887 40.0896164 15.50497837 40.08544922 17.27539062 C40.08011453 19.98589718 40.08538674 22.69623701 40.09179688 25.40673828 C40.09113583 27.12418656 40.08985413 28.84163474 40.08789062 30.55908203 C40.08991486 31.37166473 40.09193909 32.18424744 40.09402466 33.02145386 C40.08032601 36.31267384 40.00316681 38.98512847 38.95507812 42.12939453 C32.84953102 42.15403966 26.74401262 42.17222824 20.63842773 42.18432617 C18.55964657 42.18936742 16.48086896 42.19620027 14.40209961 42.20483398 C11.42105227 42.21690875 8.44005163 42.22262477 5.45898438 42.22705078 C4.05586754 42.23479271 4.05586754 42.23479271 2.62440491 42.24269104 C1.3331797 42.24280434 1.3331797 42.24280434 0.01586914 42.24291992 C-0.74580063 42.24514053 -1.5074704 42.24736115 -2.29222107 42.24964905 C-4.04492188 42.12939453 -4.04492188 42.12939453 -5.04492188 41.12939453 C-5.14602541 38.18403883 -5.18461467 35.26261893 -5.17773438 32.31689453 C-5.1786911 31.43283936 -5.17964783 30.54878418 -5.18063354 29.63793945 C-5.18131539 27.76497324 -5.17946081 25.89200467 -5.17529297 24.01904297 C-5.16994477 21.14171066 -5.17523781 18.26453445 -5.18164062 15.38720703 C-5.18097984 13.57210252 -5.17969868 11.7569981 -5.17773438 9.94189453 C-5.17975861 9.0752417 -5.18178284 8.20858887 -5.18386841 7.31567383 C-5.15497516 0.00540598 -5.15497516 0.00540598 0 0 Z " fill="#B90204" transform="translate(154.044921875,141.87060546875)"/>
<path d="M0 0 C12.87 0 25.74 0 39 0 C39 14.52 39 29.04 39 44 C26.13 44.33 13.26 44.66 0 45 C0 30.15 0 15.3 0 0 Z " fill="#FEFEFE" transform="translate(206,141)"/>
<path d="M0 0 C12.87 0 25.74 0 39 0 C39.81113801 24.17191283 39.81113801 24.17191283 31.5 33.9375 C30.2625 34.9584375 30.2625 34.9584375 29 36 C28.175 36.70125 27.35 37.4025 26.5 38.125 C17.56763336 44.82427498 11.99578113 44 0 44 C0 29.48 0 14.96 0 0 Z " fill="#FBFBFB" transform="translate(206,196)"/>
<path d="M0 0 C0.85758911 -0.00315216 1.71517822 -0.00630432 2.59875488 -0.009552 C3.53102905 -0.00752777 4.46330322 -0.00550354 5.42382812 -0.00341797 C6.84979309 -0.00485306 6.84979309 -0.00485306 8.30456543 -0.00631714 C10.31876695 -0.00699904 12.33297065 -0.00514409 14.34716797 -0.00097656 C17.44178167 0.00437155 20.53625022 -0.00092124 23.63085938 -0.00732422 C25.58268261 -0.00666344 27.53450576 -0.00538228 29.48632812 -0.00341797 C30.88473938 -0.00645432 30.88473938 -0.00645432 32.31140137 -0.009552 C33.16899048 -0.00639984 34.02657959 -0.00324768 34.91015625 0 C35.66880981 0.00079559 36.42746338 0.00159119 37.20910645 0.00241089 C38.95507812 0.12939453 38.95507812 0.12939453 39.95507812 1.12939453 C40.05616226 3.90596584 40.09477403 6.65712519 40.08789062 9.43408203 C40.08884735 10.26900177 40.08980408 11.10392151 40.09078979 11.96414185 C40.09147175 13.73455887 40.0896164 15.50497837 40.08544922 17.27539062 C40.08011453 19.98589718 40.08538674 22.69623701 40.09179688 25.40673828 C40.09113583 27.12418656 40.08985413 28.84163474 40.08789062 30.55908203 C40.08991486 31.37166473 40.09193909 32.18424744 40.09402466 33.02145386 C40.08032601 36.31267384 40.00316681 38.98512847 38.95507812 42.12939453 C32.84953102 42.15403966 26.74401262 42.17222824 20.63842773 42.18432617 C18.55964657 42.18936742 16.48086896 42.19620027 14.40209961 42.20483398 C11.42105227 42.21690875 8.44005163 42.22262477 5.45898438 42.22705078 C4.05586754 42.23479271 4.05586754 42.23479271 2.62440491 42.24269104 C1.3331797 42.24280434 1.3331797 42.24280434 0.01586914 42.24291992 C-0.74580063 42.24514053 -1.5074704 42.24736115 -2.29222107 42.24964905 C-4.04492188 42.12939453 -4.04492188 42.12939453 -5.04492188 41.12939453 C-5.14602541 38.18403883 -5.18461467 35.26261893 -5.17773438 32.31689453 C-5.1786911 31.43283936 -5.17964783 30.54878418 -5.18063354 29.63793945 C-5.18131539 27.76497324 -5.17946081 25.89200467 -5.17529297 24.01904297 C-5.16994477 21.14171066 -5.17523781 18.26453445 -5.18164062 15.38720703 C-5.18097984 13.57210252 -5.17969868 11.7569981 -5.17773438 9.94189453 C-5.17975861 9.0752417 -5.18178284 8.20858887 -5.18386841 7.31567383 C-5.15497516 0.00540598 -5.15497516 0.00540598 0 0 Z M-3.04492188 1.12939453 C-3.04492188 13.99939453 -3.04492188 26.86939453 -3.04492188 40.12939453 C10.48507813 40.12939453 24.01507813 40.12939453 37.95507812 40.12939453 C37.95507812 27.25939453 37.95507812 14.38939453 37.95507812 1.12939453 C24.42507812 1.12939453 10.89507812 1.12939453 -3.04492188 1.12939453 Z " fill="#5F0B0D" transform="translate(154.044921875,141.87060546875)"/>
<path d="M0 0 C0.66 0 1.32 0 2 0 C1.34 2.31 0.68 4.62 0 7 C-2.97 6.505 -2.97 6.505 -6 6 C-4 4 -2 2 0 0 Z " fill="#CECECE" transform="translate(55,39)"/>
<path d="M0 0 C0.99 0.66 1.98 1.32 3 2 C-0.03525486 4.02350324 -1.19426202 4.32124018 -4.6875 4.625 C-5.49574219 4.69976562 -6.30398437 4.77453125 -7.13671875 4.8515625 C-8.05904297 4.92503906 -8.05904297 4.92503906 -9 5 C-8.67 4.34 -8.34 3.68 -8 3 C-5.69 3 -3.38 3 -1 3 C-0.67 2.01 -0.34 1.02 0 0 Z " fill="#A8A8A8" transform="translate(225,235)"/>
</svg>
